<svg xmlns="http://www.w3.org/2000/svg" viewBox="0 0 24 24">
    <defs>
        <style>
            .cls-1 { fill: #5658ba; }

            .cls-2 { fill: none; stroke: #979a9b; stroke-miterlimit: 10; }

            .cls-3 { fill: #979a9b; }
        </style>
    </defs>
    <path class="cls-1"
          d="M10.12,17.5h3.76c.73,0,1.39-.39,1.75-1.03l1.95-3.5c.34-.6.34-1.34,0-1.94l-1.95-3.5c-.35-.63-1.02-1.03-1.75-1.03h-3.76c-.73,0-1.39.39-1.75,1.03l-1.95,3.5c-.34.6-.34,1.34,0,1.94l1.95,3.5c.35.63,1.02,1.03,1.75,1.03Z"/>
    <path class="cls-3"
          d="M15.82,4c.36,0,.7.2.87.51l3.89,7c.17.3.17.67,0,.97l-3.89,7c-.18.32-.51.51-.87.51h-7.65c-.36,0-.7-.2-.87-.51l-3.89-7c-.17-.3-.17-.67,0-.97l3.89-7c.18-.32.51-.51.87-.51h7.65M15.82,3h-7.65c-.73,0-1.39.39-1.75,1.03l-3.89,7c-.34.6-.34,1.34,0,1.94l3.89,7c.35.63,1.02,1.03,1.75,1.03h7.65c.73,0,1.39-.39,1.75-1.03l3.89-7c.34-.6.34-1.34,0-1.94l-3.89-7c-.35-.63-1.02-1.03-1.75-1.03h0Z"/>
    <path class="cls-2" d="M7.5,3.5l4,7.56c.31.59.31,1.29,0,1.87l-4,7.56"/>
    <line class="cls-2" x1="21.11" y1="12" x2="12" y2="12"/>
</svg>